<mxfile modified="2023-11-27T22:29:51.673Z" host="app.diagrams.net" agent="Mozilla/5.0 (Macintosh; Intel Mac OS X 10.15; rv:120.0) Gecko/20100101 Firefox/120.0" etag="i7xGLKDL-rg8UhnlkkW3" version="22.1.4" type="device">
  <diagram id="Ht1M8jgEwFfnCIfOTk4-" name="Page-1">
    <mxGraphModel dx="1383" dy="771" grid="1" gridSize="10" guides="1" tooltips="1" connect="1" arrows="1" fold="1" page="1" pageScale="1" pageWidth="1169" pageHeight="827" math="0" shadow="0">
      <root>
        <mxCell id="0" />
        <mxCell id="1" parent="0" />
        <mxCell id="UEzPUAAOIrF-is8g5C7q-74" value="Swippy AWS Cloud" style="points=[[0,0],[0.25,0],[0.5,0],[0.75,0],[1,0],[1,0.25],[1,0.5],[1,0.75],[1,1],[0.75,1],[0.5,1],[0.25,1],[0,1],[0,0.75],[0,0.5],[0,0.25]];outlineConnect=0;gradientColor=none;html=1;whiteSpace=wrap;fontSize=12;fontStyle=0;shape=mxgraph.aws4.group;grIcon=mxgraph.aws4.group_aws_cloud_alt;strokeColor=#232F3E;fillColor=none;verticalAlign=top;align=left;spacingLeft=30;fontColor=#232F3E;dashed=0;labelBackgroundColor=#ffffff;container=1;pointerEvents=0;collapsible=0;recursiveResize=0;" parent="1" vertex="1">
          <mxGeometry x="40" width="1120" height="640" as="geometry" />
        </mxCell>
        <mxCell id="KWtaa2zTrmVgfw0MSQl9-2" value="&lt;div&gt;Swippy API Gateway&lt;/div&gt;" style="sketch=0;points=[[0,0,0],[0.25,0,0],[0.5,0,0],[0.75,0,0],[1,0,0],[0,1,0],[0.25,1,0],[0.5,1,0],[0.75,1,0],[1,1,0],[0,0.25,0],[0,0.5,0],[0,0.75,0],[1,0.25,0],[1,0.5,0],[1,0.75,0]];outlineConnect=0;fontColor=#232F3E;fillColor=#E7157B;strokeColor=#ffffff;dashed=0;verticalLabelPosition=bottom;verticalAlign=top;align=center;html=1;fontSize=12;fontStyle=0;aspect=fixed;shape=mxgraph.aws4.resourceIcon;resIcon=mxgraph.aws4.api_gateway;" vertex="1" parent="UEzPUAAOIrF-is8g5C7q-74">
          <mxGeometry x="40" y="281" width="80" height="80" as="geometry" />
        </mxCell>
        <mxCell id="KWtaa2zTrmVgfw0MSQl9-10" value="" style="edgeStyle=orthogonalEdgeStyle;rounded=0;orthogonalLoop=1;jettySize=auto;html=1;entryX=0;entryY=0;entryDx=0;entryDy=0;entryPerimeter=0;" edge="1" parent="UEzPUAAOIrF-is8g5C7q-74" source="KWtaa2zTrmVgfw0MSQl9-3" target="KWtaa2zTrmVgfw0MSQl9-8">
          <mxGeometry relative="1" as="geometry">
            <mxPoint x="437" y="80" as="targetPoint" />
          </mxGeometry>
        </mxCell>
        <mxCell id="KWtaa2zTrmVgfw0MSQl9-26" value="" style="rounded=0;orthogonalLoop=1;jettySize=auto;html=1;entryX=1;entryY=0;entryDx=0;entryDy=0;entryPerimeter=0;edgeStyle=orthogonalEdgeStyle;startArrow=classic;startFill=1;" edge="1" parent="UEzPUAAOIrF-is8g5C7q-74" source="KWtaa2zTrmVgfw0MSQl9-3" target="KWtaa2zTrmVgfw0MSQl9-2">
          <mxGeometry relative="1" as="geometry">
            <mxPoint x="241" y="80" as="targetPoint" />
          </mxGeometry>
        </mxCell>
        <mxCell id="KWtaa2zTrmVgfw0MSQl9-3" value="ebay-find-advanced" style="sketch=0;outlineConnect=0;fontColor=#232F3E;gradientColor=none;fillColor=#ED7100;strokeColor=none;dashed=0;verticalLabelPosition=bottom;verticalAlign=top;align=center;html=1;fontSize=12;fontStyle=0;aspect=fixed;pointerEvents=1;shape=mxgraph.aws4.lambda_function;" vertex="1" parent="UEzPUAAOIrF-is8g5C7q-74">
          <mxGeometry x="310" y="51" width="58" height="58" as="geometry" />
        </mxCell>
        <mxCell id="KWtaa2zTrmVgfw0MSQl9-12" value="" style="edgeStyle=orthogonalEdgeStyle;rounded=0;orthogonalLoop=1;jettySize=auto;html=1;entryX=0;entryY=0.25;entryDx=0;entryDy=0;entryPerimeter=0;" edge="1" parent="UEzPUAAOIrF-is8g5C7q-74" source="KWtaa2zTrmVgfw0MSQl9-4" target="KWtaa2zTrmVgfw0MSQl9-8">
          <mxGeometry relative="1" as="geometry">
            <mxPoint x="437" y="200" as="targetPoint" />
          </mxGeometry>
        </mxCell>
        <mxCell id="KWtaa2zTrmVgfw0MSQl9-29" value="" style="edgeStyle=orthogonalEdgeStyle;rounded=0;orthogonalLoop=1;jettySize=auto;html=1;entryX=1;entryY=0.25;entryDx=0;entryDy=0;entryPerimeter=0;startArrow=classic;startFill=1;" edge="1" parent="UEzPUAAOIrF-is8g5C7q-74" source="KWtaa2zTrmVgfw0MSQl9-4" target="KWtaa2zTrmVgfw0MSQl9-2">
          <mxGeometry relative="1" as="geometry">
            <mxPoint x="241" y="200" as="targetPoint" />
          </mxGeometry>
        </mxCell>
        <mxCell id="KWtaa2zTrmVgfw0MSQl9-4" value="ebay-find-by-category" style="sketch=0;outlineConnect=0;fontColor=#232F3E;gradientColor=none;fillColor=#ED7100;strokeColor=none;dashed=0;verticalLabelPosition=bottom;verticalAlign=top;align=center;html=1;fontSize=12;fontStyle=0;aspect=fixed;pointerEvents=1;shape=mxgraph.aws4.lambda_function;" vertex="1" parent="UEzPUAAOIrF-is8g5C7q-74">
          <mxGeometry x="310" y="171" width="58" height="58" as="geometry" />
        </mxCell>
        <mxCell id="KWtaa2zTrmVgfw0MSQl9-14" value="" style="edgeStyle=orthogonalEdgeStyle;rounded=0;orthogonalLoop=1;jettySize=auto;html=1;entryX=0;entryY=0.5;entryDx=0;entryDy=0;entryPerimeter=0;" edge="1" parent="UEzPUAAOIrF-is8g5C7q-74" source="KWtaa2zTrmVgfw0MSQl9-5" target="KWtaa2zTrmVgfw0MSQl9-8">
          <mxGeometry relative="1" as="geometry">
            <mxPoint x="437" y="321" as="targetPoint" />
          </mxGeometry>
        </mxCell>
        <mxCell id="KWtaa2zTrmVgfw0MSQl9-31" value="" style="edgeStyle=orthogonalEdgeStyle;rounded=0;orthogonalLoop=1;jettySize=auto;html=1;entryX=1;entryY=0.5;entryDx=0;entryDy=0;entryPerimeter=0;startArrow=classic;startFill=1;" edge="1" parent="UEzPUAAOIrF-is8g5C7q-74" source="KWtaa2zTrmVgfw0MSQl9-5" target="KWtaa2zTrmVgfw0MSQl9-2">
          <mxGeometry relative="1" as="geometry">
            <mxPoint x="241" y="321" as="targetPoint" />
          </mxGeometry>
        </mxCell>
        <mxCell id="KWtaa2zTrmVgfw0MSQl9-5" value="ebay-find-by-keyword" style="sketch=0;outlineConnect=0;fontColor=#232F3E;gradientColor=none;fillColor=#ED7100;strokeColor=none;dashed=0;verticalLabelPosition=bottom;verticalAlign=top;align=center;html=1;fontSize=12;fontStyle=0;aspect=fixed;pointerEvents=1;shape=mxgraph.aws4.lambda_function;" vertex="1" parent="UEzPUAAOIrF-is8g5C7q-74">
          <mxGeometry x="310" y="292" width="58" height="58" as="geometry" />
        </mxCell>
        <mxCell id="KWtaa2zTrmVgfw0MSQl9-16" value="" style="edgeStyle=orthogonalEdgeStyle;rounded=0;orthogonalLoop=1;jettySize=auto;html=1;entryX=0;entryY=0.75;entryDx=0;entryDy=0;entryPerimeter=0;" edge="1" parent="UEzPUAAOIrF-is8g5C7q-74" source="KWtaa2zTrmVgfw0MSQl9-6" target="KWtaa2zTrmVgfw0MSQl9-8">
          <mxGeometry relative="1" as="geometry">
            <mxPoint x="437" y="440" as="targetPoint" />
          </mxGeometry>
        </mxCell>
        <mxCell id="KWtaa2zTrmVgfw0MSQl9-33" value="" style="edgeStyle=orthogonalEdgeStyle;rounded=0;orthogonalLoop=1;jettySize=auto;html=1;entryX=1;entryY=0.75;entryDx=0;entryDy=0;entryPerimeter=0;startArrow=classic;startFill=1;" edge="1" parent="UEzPUAAOIrF-is8g5C7q-74" source="KWtaa2zTrmVgfw0MSQl9-6" target="KWtaa2zTrmVgfw0MSQl9-2">
          <mxGeometry relative="1" as="geometry">
            <mxPoint x="241" y="440" as="targetPoint" />
          </mxGeometry>
        </mxCell>
        <mxCell id="KWtaa2zTrmVgfw0MSQl9-6" value="ebay-find-by-product" style="sketch=0;outlineConnect=0;fontColor=#232F3E;gradientColor=none;fillColor=#ED7100;strokeColor=none;dashed=0;verticalLabelPosition=bottom;verticalAlign=top;align=center;html=1;fontSize=12;fontStyle=0;aspect=fixed;pointerEvents=1;shape=mxgraph.aws4.lambda_function;" vertex="1" parent="UEzPUAAOIrF-is8g5C7q-74">
          <mxGeometry x="310" y="411" width="58" height="58" as="geometry" />
        </mxCell>
        <mxCell id="KWtaa2zTrmVgfw0MSQl9-18" value="" style="edgeStyle=orthogonalEdgeStyle;rounded=0;orthogonalLoop=1;jettySize=auto;html=1;entryX=0;entryY=1;entryDx=0;entryDy=0;entryPerimeter=0;" edge="1" parent="UEzPUAAOIrF-is8g5C7q-74" source="KWtaa2zTrmVgfw0MSQl9-7" target="KWtaa2zTrmVgfw0MSQl9-8">
          <mxGeometry relative="1" as="geometry">
            <mxPoint x="437" y="560" as="targetPoint" />
          </mxGeometry>
        </mxCell>
        <mxCell id="KWtaa2zTrmVgfw0MSQl9-35" value="" style="edgeStyle=orthogonalEdgeStyle;rounded=0;orthogonalLoop=1;jettySize=auto;html=1;entryX=1;entryY=1;entryDx=0;entryDy=0;entryPerimeter=0;startArrow=classic;startFill=1;" edge="1" parent="UEzPUAAOIrF-is8g5C7q-74" source="KWtaa2zTrmVgfw0MSQl9-7" target="KWtaa2zTrmVgfw0MSQl9-2">
          <mxGeometry relative="1" as="geometry">
            <mxPoint x="241" y="560" as="targetPoint" />
          </mxGeometry>
        </mxCell>
        <mxCell id="KWtaa2zTrmVgfw0MSQl9-7" value="ebay-find-in-ebay-stores" style="sketch=0;outlineConnect=0;fontColor=#232F3E;gradientColor=none;fillColor=#ED7100;strokeColor=none;dashed=0;verticalLabelPosition=bottom;verticalAlign=top;align=center;html=1;fontSize=12;fontStyle=0;aspect=fixed;pointerEvents=1;shape=mxgraph.aws4.lambda_function;" vertex="1" parent="UEzPUAAOIrF-is8g5C7q-74">
          <mxGeometry x="310" y="531" width="58" height="58" as="geometry" />
        </mxCell>
        <mxCell id="KWtaa2zTrmVgfw0MSQl9-8" value="Result Queue" style="sketch=0;points=[[0,0,0],[0.25,0,0],[0.5,0,0],[0.75,0,0],[1,0,0],[0,1,0],[0.25,1,0],[0.5,1,0],[0.75,1,0],[1,1,0],[0,0.25,0],[0,0.5,0],[0,0.75,0],[1,0.25,0],[1,0.5,0],[1,0.75,0]];outlineConnect=0;fontColor=#232F3E;fillColor=#E7157B;strokeColor=#ffffff;dashed=0;verticalLabelPosition=bottom;verticalAlign=top;align=center;html=1;fontSize=12;fontStyle=0;aspect=fixed;shape=mxgraph.aws4.resourceIcon;resIcon=mxgraph.aws4.sqs;labelPosition=center;" vertex="1" parent="UEzPUAAOIrF-is8g5C7q-74">
          <mxGeometry x="505" y="281" width="80" height="80" as="geometry" />
        </mxCell>
        <mxCell id="KWtaa2zTrmVgfw0MSQl9-38" value="" style="edgeStyle=orthogonalEdgeStyle;rounded=0;orthogonalLoop=1;jettySize=auto;html=1;entryX=1;entryY=0.5;entryDx=0;entryDy=0;entryPerimeter=0;" edge="1" parent="UEzPUAAOIrF-is8g5C7q-74" source="KWtaa2zTrmVgfw0MSQl9-36" target="KWtaa2zTrmVgfw0MSQl9-8">
          <mxGeometry relative="1" as="geometry">
            <mxPoint x="891" y="320" as="targetPoint" />
          </mxGeometry>
        </mxCell>
        <mxCell id="KWtaa2zTrmVgfw0MSQl9-36" value="db-insert" style="sketch=0;outlineConnect=0;fontColor=#232F3E;gradientColor=none;fillColor=#ED7100;strokeColor=none;dashed=0;verticalLabelPosition=bottom;verticalAlign=top;align=center;html=1;fontSize=12;fontStyle=0;aspect=fixed;pointerEvents=1;shape=mxgraph.aws4.lambda_function;labelPosition=center;" vertex="1" parent="UEzPUAAOIrF-is8g5C7q-74">
          <mxGeometry x="960" y="292" width="58" height="58" as="geometry" />
        </mxCell>
        <mxCell id="KWtaa2zTrmVgfw0MSQl9-40" value="Matt&#39;s Basement" style="points=[[0,0],[0.25,0],[0.5,0],[0.75,0],[1,0],[1,0.25],[1,0.5],[1,0.75],[1,1],[0.75,1],[0.5,1],[0.25,1],[0,1],[0,0.75],[0,0.5],[0,0.25]];outlineConnect=0;gradientColor=none;html=1;whiteSpace=wrap;fontSize=12;fontStyle=0;container=1;pointerEvents=0;collapsible=0;recursiveResize=0;shape=mxgraph.aws4.group;grIcon=mxgraph.aws4.group_corporate_data_center;strokeColor=#7D8998;fillColor=none;verticalAlign=top;align=left;spacingLeft=30;fontColor=#5A6C86;dashed=0;" vertex="1" parent="1">
          <mxGeometry x="840" y="680" width="320" height="130" as="geometry" />
        </mxCell>
        <mxCell id="KWtaa2zTrmVgfw0MSQl9-41" value="Swippy Database" style="sketch=0;outlineConnect=0;fontColor=#232F3E;gradientColor=none;fillColor=#C925D1;strokeColor=none;dashed=0;verticalLabelPosition=bottom;verticalAlign=top;align=center;html=1;fontSize=12;fontStyle=0;aspect=fixed;pointerEvents=1;shape=mxgraph.aws4.rds_postgresql_instance;" vertex="1" parent="KWtaa2zTrmVgfw0MSQl9-40">
          <mxGeometry x="150" y="26" width="78" height="78" as="geometry" />
        </mxCell>
        <mxCell id="KWtaa2zTrmVgfw0MSQl9-43" value="" style="edgeStyle=orthogonalEdgeStyle;rounded=0;orthogonalLoop=1;jettySize=auto;html=1;" edge="1" parent="1" source="KWtaa2zTrmVgfw0MSQl9-36" target="KWtaa2zTrmVgfw0MSQl9-41">
          <mxGeometry relative="1" as="geometry">
            <mxPoint x="1029" y="429" as="targetPoint" />
          </mxGeometry>
        </mxCell>
      </root>
    </mxGraphModel>
  </diagram>
</mxfile>
